<svg xmlns="http://www.w3.org/2000/svg" xmlns:svg="http://www.w3.org/2000/svg" xmlns:xlink="http://www.w3.org/1999/xlink" id="svg1306" viewBox="0 0 48 48"><defs id="defs1308"><radialGradient id="radialGradient5031" cx="605.71" cy="486.65" r="117.14" gradientTransform="matrix(-2.7744 0 0 1.9697 112.76 -872.89)" gradientUnits="userSpaceOnUse" xlink:href="#linearGradient5060"/><linearGradient id="linearGradient5060"><stop id="stop5062" offset="0"/><stop id="stop5064" offset="1" stop-opacity="0"/></linearGradient><radialGradient id="radialGradient5029" cx="605.71" cy="486.65" r="117.14" gradientTransform="matrix(2.7744 0 0 1.9697 -1891.6 -872.89)" gradientUnits="userSpaceOnUse" xlink:href="#linearGradient5060"/><linearGradient id="linearGradient5027" x1="302.86" x2="302.86" y1="366.65" y2="609.51" gradientTransform="matrix(2.7744 0 0 1.9697 -1892.2 -872.89)" gradientUnits="userSpaceOnUse"><stop id="stop5050" offset="0" stop-opacity="0"/><stop id="stop5056" offset=".5"/><stop id="stop5052" offset="1" stop-opacity="0"/></linearGradient><linearGradient id="linearGradient2212" x1="25.861" x2="18.3" y1="26.134" y2="19.568" gradientTransform="matrix(.95239 0 0 1.0183 1.1426 -1.9416)" gradientUnits="userSpaceOnUse"><stop id="stop2208" offset="0" stop-color="#c3c6c0"/><stop id="stop2210" offset="1" stop-color="#e8eae6"/></linearGradient><linearGradient id="linearGradient2220" x1=".001" x2="47.999" y1="24.012" y2="24.012" gradientTransform="matrix(.95239 0 0 1.0183 1.1426 -1.9416)" gradientUnits="userSpaceOnUse"><stop id="stop2216" offset="0" stop-color="#a9aaa7"/><stop id="stop2218" offset="1" stop-color="#676964"/></linearGradient><linearGradient id="linearGradient2244" x1="20.339" x2="46.092" y1="19.637" y2="39.708" gradientTransform="matrix(.95239 0 0 1.0157 1.1426 -.87632)" gradientUnits="userSpaceOnUse"><stop id="stop2240" offset="0" stop-color="#fff"/><stop id="stop2242" offset="1" stop-color="#fff" stop-opacity="0"/></linearGradient><linearGradient id="linearGradient1340" x1="8.821" x2="12.499" y1="12.538" y2="24.238" gradientTransform="matrix(3.8095 0 0 1.7503 -16 -15.787)" gradientUnits="userSpaceOnUse"><stop id="stop2182" offset="0" stop-color="#fff"/><stop id="stop2184" offset="1" stop-color="#fff" stop-opacity="0"/></linearGradient><radialGradient id="radialGradient2229" cx="23.994" cy="32.267" r="19.089" gradientTransform="matrix(1.7686 -1.9613e-23 1.5521e-23 1.3871 -18.442 -15.293)" gradientUnits="userSpaceOnUse"><stop id="stop2224" offset="0" stop-color="#5187d6"/><stop id="stop2227" offset="1" stop-color="#1e4580"/></radialGradient><linearGradient id="linearGradient2231" x1="35.694" x2="15.044" y1="37.334" y2="5.959" gradientUnits="userSpaceOnUse"><stop id="stop2225" offset="0" stop-color="#fff"/><stop id="stop2229" offset="1" stop-color="#fff" stop-opacity="0"/></linearGradient></defs><g id="layer1"><g id="g5022" transform="matrix(.024545 0 0 .020868 45.894 40.091)"><rect id="rect4173" width="1339.6" height="478.36" x="-1559.3" y="-150.7" fill="url(#linearGradient5027)" opacity=".402" style="color:#000"/><path id="path5058" fill="url(#radialGradient5029)" d="m-219.62-150.68v478.33c142.88 0.9 345.4-107.17 345.4-239.2 0-132.02-159.44-239.13-345.4-239.13z" opacity=".402" style="color:#000"/><path id="path5018" fill="url(#radialGradient5031)" d="m-1559.3-150.68v478.33c-142.8 0.9-345.4-107.17-345.4-239.2 0-132.02 159.5-239.13 345.4-239.13z" opacity=".402" style="color:#000"/></g><rect id="rect1316" width="44.76" height="41.702" x="1.62" y="1.66" fill="url(#linearGradient2212)" fill-rule="evenodd" stroke="url(#linearGradient2220)" stroke-linecap="round" stroke-linejoin="round" rx="4.566" ry="4.566"/><rect id="rect1314" width="37.178" height="28.955" x="5.405" y="5.482" fill="url(#radialGradient2229)" fill-rule="evenodd" stroke="#173562" stroke-linecap="round" stroke-linejoin="round" rx="1.695" ry="1.695"/><path id="path2188" fill="#ecffd9" fill-rule="evenodd" stroke="#c3ea9b" stroke-miterlimit="10" stroke-opacity=".416" d="m12.391 20.935h-6.0221v1.217h7.7191l1.406-5.913 3.462 13.698 3.209-10.82 2.894 5.912 3.887-3.512h12.709v-2.06h-13.15l-3.17 3.14-3.275-6.659-3.01 8.174-3.269-12.863-3.39 9.686z"/><rect id="rect2232" width="42.895" height="39.647" x="2.554" y="2.654" fill="none" stroke="url(#linearGradient2244)" stroke-linecap="round" stroke-linejoin="round" rx="4.13" ry="4.13"/><path id="path3088" fill="#ecffd9" fill-rule="evenodd" stroke="#c3ea9b" stroke-opacity=".416" d="m11.516 20.012h-5.1471v3.049l8.5941-0.125 0.656-3.043 3.344 12.709 3.577-11.467 2.519 5.416 4.262-4.108 12.334-0.125-0.75-3.91-12.4-0.125-3.045 3.173-3.4-7.79-2.635 6.938-3.519-12.27-4.39 11.678z" opacity=".381"/><path id="rect2178" fill="url(#linearGradient1340)" fill-rule="evenodd" d="m6.8438 6.9688v8.8262c3.6702 0.688 7.7392 1.08 12.031 1.08 8.935 0 16.937-1.665 22.281-4.278v-5.6282h-34.312z" opacity=".432"/><g id="g3126" stroke="#000" stroke-miterlimit="10" opacity=".08" transform="translate(.18750 .68750)"><path id="path3120" d="m39.125 37.812l-1.063-0.468c-0.256-0.14-0.562-0.219-0.874-0.219-1.001 0-1.813 0.812-1.813 1.813 0 1 0.812 1.812 1.813 1.812 0.969 0 1.763-0.762 1.812-1.719v-0.031l0.125-1.188z" opacity="1" style="color:#000"/><path id="path3122" d="m28.993 37.545l-0.1 1.165c-0.037 0.29-0.001 0.603 0.112 0.895 0.362 0.933 1.413 1.396 2.345 1.035 0.933-0.362 1.397-1.412 1.035-2.345-0.35-0.904-1.347-1.37-2.257-1.069-0.008 0.002-0.022 0.009-0.029 0.011l-1.106 0.308z" opacity="1" style="color:#000"/><path id="path3124" d="m25.5 37.812l-0.938-0.468c-0.256-0.14-0.562-0.219-0.874-0.219-1.001 0-1.813 0.812-1.813 1.813 0 1 0.812 1.812 1.813 1.812 0.969 0 1.763-0.762 1.812-1.719v-1.219z" opacity="1" style="color:#000"/></g><path id="path3111" fill="#e0e2df" stroke="#9b9d99" stroke-miterlimit="10" d="m39.125 37.812l-1.063-0.468c-0.256-0.14-0.562-0.219-0.874-0.219-1.001 0-1.813 0.812-1.813 1.813 0 1 0.812 1.812 1.813 1.812 0.969 0 1.763-0.762 1.812-1.719v-0.031l0.125-1.188z" style="color:#000"/><path id="path3116" fill="#e0e2df" stroke="#9b9d99" stroke-miterlimit="10" d="m28.993 37.545l-0.1 1.165c-0.037 0.29-0.001 0.603 0.112 0.895 0.362 0.933 1.413 1.396 2.345 1.035 0.933-0.362 1.397-1.412 1.035-2.345-0.35-0.904-1.347-1.37-2.257-1.069-0.008 0.002-0.022 0.009-0.029 0.011l-1.106 0.308z" style="color:#000"/><path id="path3118" fill="#e0e2df" stroke="#9b9d99" stroke-miterlimit="10" d="m25.5 37.812l-0.938-0.468c-0.256-0.14-0.562-0.219-0.874-0.219-1.001 0-1.813 0.812-1.813 1.813 0 1 0.812 1.812 1.813 1.812 0.969 0 1.763-0.762 1.812-1.719v-1.219z" style="color:#000"/><rect id="rect2221" width="39.35" height="30.646" x="4.319" y="4.636" fill="none" stroke="url(#linearGradient2231)" stroke-linecap="round" stroke-linejoin="round" opacity=".574" rx="2.57" ry="2.57"/></g><metadata/></svg>
